<?xml version="1.0" encoding="UTF-8" standalone="no"?>
<!-- Created with Inkscape (http://www.inkscape.org/) -->

<svg
   width="145.76044mm"
   height="34.959724mm"
   viewBox="0 0 145.76044 34.959724"
   version="1.1"
   id="svg5"
   xml:space="preserve"
   inkscape:version="1.2.1 (9c6d41e410, 2022-07-14)"
   sodipodi:docname="StateReducer.svg"
   xmlns:inkscape="http://www.inkscape.org/namespaces/inkscape"
   xmlns:sodipodi="http://sodipodi.sourceforge.net/DTD/sodipodi-0.dtd"
   xmlns="http://www.w3.org/2000/svg"
   xmlns:svg="http://www.w3.org/2000/svg"><sodipodi:namedview
     id="namedview7"
     pagecolor="#ffffff"
     bordercolor="#000000"
     borderopacity="0.25"
     inkscape:showpageshadow="2"
     inkscape:pageopacity="0.0"
     inkscape:pagecheckerboard="0"
     inkscape:deskcolor="#d1d1d1"
     inkscape:document-units="mm"
     showgrid="false"
     inkscape:zoom="1.1893044"
     inkscape:cx="210.62732"
     inkscape:cy="0.84082763"
     inkscape:window-width="1884"
     inkscape:window-height="1197"
     inkscape:window-x="26"
     inkscape:window-y="23"
     inkscape:window-maximized="0"
     inkscape:current-layer="layer1" /><defs
     id="defs2"><marker
       style="overflow:visible"
       id="TriangleStart"
       refX="0"
       refY="0"
       orient="auto-start-reverse"
       inkscape:stockid="TriangleStart"
       markerWidth="5.3244081"
       markerHeight="6.155385"
       viewBox="0 0 5.3244081 6.1553851"
       inkscape:isstock="true"
       inkscape:collect="always"
       preserveAspectRatio="xMidYMid"><path
         transform="scale(0.5)"
         style="fill:context-stroke;fill-rule:evenodd;stroke:context-stroke;stroke-width:1pt"
         d="M 5.77,0 -2.88,5 V -5 Z"
         id="path135" /></marker><marker
       style="overflow:visible"
       id="TriangleStart-3"
       refX="0"
       refY="0"
       orient="auto-start-reverse"
       inkscape:stockid="TriangleStart"
       markerWidth="5.3244081"
       markerHeight="6.155385"
       viewBox="0 0 5.3244081 6.1553851"
       inkscape:isstock="true"
       inkscape:collect="always"
       preserveAspectRatio="xMidYMid"><path
         transform="scale(0.5)"
         style="fill:context-stroke;fill-rule:evenodd;stroke:context-stroke;stroke-width:1pt"
         d="M 5.77,0 -2.88,5 V -5 Z"
         id="path135-6" /></marker><marker
       style="overflow:visible"
       id="TriangleStart-5"
       refX="0"
       refY="0"
       orient="auto-start-reverse"
       inkscape:stockid="TriangleStart"
       markerWidth="5.3244081"
       markerHeight="6.155385"
       viewBox="0 0 5.3244081 6.1553851"
       inkscape:isstock="true"
       inkscape:collect="always"
       preserveAspectRatio="xMidYMid"><path
         transform="scale(0.5)"
         style="fill:context-stroke;fill-rule:evenodd;stroke:context-stroke;stroke-width:1pt"
         d="M 5.77,0 -2.88,5 V -5 Z"
         id="path135-3" /></marker></defs><g
     inkscape:label="Capa 1"
     inkscape:groupmode="layer"
     id="layer1"
     transform="translate(-33.953542,-32.963239)"><rect
       style="fill:#caf2ff;fill-opacity:1;stroke:#000000;stroke-width:0.170621"
       id="rect234"
       width="47.472164"
       height="34.789104"
       x="81.263916"
       y="33.04855" /><path
       style="fill:none;fill-opacity:1;stroke:#000000;stroke-width:0.765;stroke-dasharray:none;stroke-opacity:1;marker-end:url(#TriangleStart)"
       d="M 50.283038,41.602567 H 78.462033"
       id="path1017" /><path
       style="fill:none;fill-opacity:1;stroke:#000000;stroke-width:0.765;stroke-dasharray:none;stroke-opacity:1;marker-end:url(#TriangleStart-3)"
       d="M 50.283038,55.572056 H 78.462033"
       id="path1017-7" /><path
       style="fill:none;fill-opacity:1;stroke:#000000;stroke-width:0.765;stroke-dasharray:none;stroke-opacity:1;marker-end:url(#TriangleStart-5)"
       d="m 128.26283,50.443102 h 28.179"
       id="path1017-5" /><text
       xml:space="preserve"
       style="font-weight:bold;font-size:4.23333px;font-family:monospace;-inkscape-font-specification:'monospace Bold';text-align:center;text-anchor:middle;fill:none;fill-opacity:1;stroke:#000000;stroke-width:0.765;stroke-dasharray:none;stroke-opacity:1"
       x="41.980595"
       y="40.447277"
       id="text1853"><tspan
         sodipodi:role="line"
         id="tspan1851"
         style="font-style:normal;font-variant:normal;font-weight:bold;font-stretch:normal;font-family:Raleway;-inkscape-font-specification:'Raleway Bold';fill:#000000;fill-opacity:1;stroke:none;stroke-width:0.765"
         x="41.980595"
         y="40.447277">Estado</tspan><tspan
         sodipodi:role="line"
         style="font-style:normal;font-variant:normal;font-weight:bold;font-stretch:normal;font-family:Raleway;-inkscape-font-specification:'Raleway Bold';fill:#000000;fill-opacity:1;stroke:none;stroke-width:0.765"
         x="41.980595"
         y="45.805851"
         id="tspan1971">actual</tspan></text><text
       xml:space="preserve"
       style="font-weight:bold;font-size:4.23333px;font-family:monospace;-inkscape-font-specification:'monospace Bold';text-align:center;text-anchor:middle;fill:none;fill-opacity:1;stroke:#000000;stroke-width:0.765;stroke-dasharray:none;stroke-opacity:1"
       x="40.80307"
       y="57.096054"
       id="text1853-6"><tspan
         sodipodi:role="line"
         id="tspan1851-2"
         style="font-style:normal;font-variant:normal;font-weight:bold;font-stretch:normal;font-family:Raleway;-inkscape-font-specification:'Raleway Bold';fill:#000000;fill-opacity:1;stroke:none;stroke-width:0.765"
         x="40.80307"
         y="57.096054">Acción</tspan></text><text
       xml:space="preserve"
       style="font-weight:bold;font-size:4.23333px;font-family:monospace;-inkscape-font-specification:'monospace Bold';text-align:center;text-anchor:middle;fill:none;fill-opacity:1;stroke:#000000;stroke-width:0.765;stroke-dasharray:none;stroke-opacity:1"
       x="170.4324"
       y="48.836964"
       id="text1853-9"><tspan
         sodipodi:role="line"
         id="tspan1851-1"
         style="font-style:normal;font-variant:normal;font-weight:bold;font-stretch:normal;font-family:Raleway;-inkscape-font-specification:'Raleway Bold';fill:#000000;fill-opacity:1;stroke:none;stroke-width:0.765"
         x="170.4324"
         y="48.836964">Estado</tspan><tspan
         sodipodi:role="line"
         style="font-style:normal;font-variant:normal;font-weight:bold;font-stretch:normal;font-family:Raleway;-inkscape-font-specification:'Raleway Bold';fill:#000000;fill-opacity:1;stroke:none;stroke-width:0.765"
         x="170.4324"
         y="54.195538"
         id="tspan1973">siguiente</tspan></text><text
       xml:space="preserve"
       style="font-style:normal;font-variant:normal;font-weight:bold;font-stretch:normal;font-size:4.23333px;font-family:Raleway;-inkscape-font-specification:'Raleway Bold';text-align:center;text-anchor:middle;fill:#000000;fill-opacity:1;stroke:none;stroke-width:0.765;stroke-dasharray:none;stroke-opacity:1"
       x="104.97884"
       y="63.120094"
       id="text1977"><tspan
         sodipodi:role="line"
         id="tspan1975"
         style="font-style:italic;stroke-width:0.765"
         x="104.97884"
         y="63.120094">State reducer</tspan></text><g
       transform="matrix(0.00174306,0,0,-0.00174306,93.863232,58.159932)"
       fill="#000000"
       stroke="none"
       id="g2368"
       style="fill:#69dbff;fill-opacity:1"><path
         d="m 5565,12793 c -437,-20 -955,-111 -1410,-249 -859,-261 -1717,-753 -2352,-1348 -51,-47 -95,-86 -97,-86 -3,0 -122,149 -266,330 -144,182 -282,347 -307,368 -24,20 -68,60 -98,88 -74,70 -128,94 -212,94 -114,0 -208,-61 -264,-169 -33,-64 -36,-151 -43,-1161 -4,-481 -11,-1322 -17,-1869 -5,-546 -8,-995 -6,-997 4,-5 -24,-16 1912,766 270,109 738,298 1040,420 303,122 569,233 591,246 53,30 90,74 122,143 33,72 33,152 -2,262 -29,95 -66,146 -130,184 -36,21 -584,207 -858,292 -49,15 -88,30 -88,33 0,14 236,191 377,283 309,200 595,339 927,449 394,131 768,200 1181,217 512,22 983,-45 1478,-210 372,-123 711,-285 1020,-485 54,-35 100,-64 102,-64 3,0 16,18 30,40 l 26,41 79,-56 79,-56 34,53 c 231,364 837,1361 831,1367 -13,12 -246,160 -334,213 -431,259 -963,489 -1460,632 -642,185 -1242,258 -1885,229 z"
         id="path2362"
         style="fill:#69dbff;fill-opacity:1" /><path
         d="m 9310,10957 c 0,-8 -16,-125 -35,-259 -36,-246 -187,-1284 -295,-2033 -132,-913 -161,-1115 -181,-1249 -30,-199 -29,-257 6,-329 34,-68 78,-110 152,-144 105,-48 201,-40 295,25 24,17 198,172 387,346 190,173 346,314 347,313 2,-1 10,-47 18,-102 98,-641 32,-1341 -189,-1985 C 9523,4689 9005,3998 8257,3462 8111,3357 7981,3276 7793,3172 l -152,-84 19,-39 c 11,-21 20,-42 20,-46 0,-5 -34,-25 -76,-46 -41,-21 -74,-41 -72,-45 6,-15 731,-1357 750,-1389 l 19,-33 62,32 c 391,197 862,515 1227,826 792,678 1366,1481 1720,2407 269,705 400,1415 400,2175 0,429 -36,796 -117,1190 -20,96 -38,187 -40,201 l -5,26 264,42 c 521,83 548,89 623,125 39,18 90,39 115,46 109,30 184,99 215,196 34,107 -4,239 -88,308 -36,29 -3302,1884 -3349,1902 -12,4 -18,1 -18,-9 z"
         id="path2364"
         style="fill:#69dbff;fill-opacity:1" /><path
         d="M 4,7453 C 0,7404 0,7239 4,7085 26,6105 245,5238 700,4330 1131,3470 1828,2691 2665,2133 c 435,-289 894,-512 1450,-704 91,-32 139,-53 137,-61 -2,-7 -73,-195 -159,-418 -173,-450 -183,-480 -183,-564 0,-76 26,-131 88,-186 26,-23 72,-66 103,-96 96,-92 206,-124 311,-89 58,19 3339,1905 3335,1918 -6,19 -2978,2350 -3024,2372 -102,49 -253,26 -329,-50 -14,-14 -47,-36 -73,-49 -54,-28 -116,-92 -137,-142 -28,-68 -18,-148 77,-580 50,-229 88,-418 85,-421 -7,-7 -353,163 -481,237 -626,361 -1171,883 -1561,1497 -363,571 -573,1185 -660,1928 -14,113 -18,231 -18,476 l -1,326 -149,7 c -82,3 -445,6 -807,6 H 12 Z"
         id="path2366"
         style="fill:#69dbff;fill-opacity:1" /></g></g></svg>
